HIERARCHY
ROOT Pelvis
{
    OFFSET 0.000000 0.000000 0.000000
    CHANNELS 6 Xposition Yposition Zposition Zrotation Yrotation Xrotation
    JOINT Spine1(L5~L4)
    {
        OFFSET 0.000000 1.035090 -0.000046
        CHANNELS 3 Zrotation Yrotation Xrotation
        JOINT Spine2(L3~L1)
        {
            OFFSET 0.000000 1.146240 0.000051
            CHANNELS 3 Zrotation Yrotation Xrotation
            JOINT Thorax1(T12~T9)
            {
                OFFSET 0.000000 1.046466 -0.000043
                CHANNELS 3 Zrotation Yrotation Xrotation
                JOINT Thorax2(T8~T1)
                {
                    OFFSET 0.000000 1.045296 -0.000043
                    CHANNELS 3 Zrotation Yrotation Xrotation
                    JOINT Neck(C7~C1)
                    {
                        OFFSET 0.000000 1.463490 0.000000
                        CHANNELS 3 Zrotation Yrotation Xrotation
                        JOINT Head
                        {
                            OFFSET 0.000000 0.973062 0.000086
                            CHANNELS 3 Zrotation Yrotation Xrotation
                            End Site
                            {
                                OFFSET -0.000000 1.805411 0.106200
                            }
                        }
                    }
                    JOINT RightShoulder
                    {
                        OFFSET -0.317508 0.820128 0.000000
                        CHANNELS 3 Zrotation Yrotation Xrotation
                        JOINT RightUpperArm
                        {
                            OFFSET -1.475244 -0.000000 0.000000
                            CHANNELS 3 Zrotation Yrotation Xrotation
                            JOINT RightForearm
                            {
                                OFFSET 0.000002 -3.152141 0.000000
                                CHANNELS 3 Zrotation Yrotation Xrotation
                                JOINT RightHand
                                {
                                    OFFSET 0.000002 -2.577779 0.000000
                                    CHANNELS 3 Zrotation Yrotation Xrotation
                                    End Site
                                    {
                                        OFFSET 0.000000 -1.927547 0.000000
                                    }
                                }
                            }
                        }
                    }
                    JOINT LeftShoulder
                    {
                        OFFSET 0.317508 0.820128 0.000000
                        CHANNELS 3 Zrotation Yrotation Xrotation
                        JOINT LeftUpperArm
                        {
                            OFFSET 1.475244 -0.000000 0.000000
                            CHANNELS 3 Zrotation Yrotation Xrotation
                            JOINT LeftForearm
                            {
                                OFFSET 0.000002 -3.152141 0.000000
                                CHANNELS 3 Zrotation Yrotation Xrotation
                                JOINT LeftHand
                                {
                                    OFFSET 0.000002 -2.577779 0.000000
                                    CHANNELS 3 Zrotation Yrotation Xrotation
                                    End Site
                                    {
                                        OFFSET 0.000000 -1.927547 0.000000
                                    }
                                }
                            }
                        }
                    }
                }
            }
        }
    }
    JOINT RightUpperLeg
    {
        OFFSET -0.844200 -0.000000 0.000000
        CHANNELS 3 Zrotation Yrotation Xrotation
        JOINT RightLowerLeg
        {
            OFFSET 0.000003 -4.385015 0.000084
            CHANNELS 3 Zrotation Yrotation Xrotation
            JOINT RightFoot
            {
                OFFSET 0.000003 -4.285727 0.000138
                CHANNELS 3 Zrotation Yrotation Xrotation
                JOINT RightToe
                {
                    OFFSET 0.000000 -0.699338 1.584412
                    CHANNELS 3 Zrotation Yrotation Xrotation
                    End Site
                    {
                        OFFSET -0.000000 -0.166200 0.681375
                    }
                }
            }
        }
    }
    JOINT LeftUpperLeg
    {
        OFFSET 0.844200 -0.000000 0.000000
        CHANNELS 3 Zrotation Yrotation Xrotation
        JOINT LeftLowerLeg
        {
            OFFSET 0.000003 -4.385015 0.000084
            CHANNELS 3 Zrotation Yrotation Xrotation
            JOINT LeftFoot
            {
                OFFSET 0.000003 -4.285727 0.000138
                CHANNELS 3 Zrotation Yrotation Xrotation
                JOINT LeftToe
                {
                    OFFSET 0.000000 -0.699338 1.584412
                    CHANNELS 3 Zrotation Yrotation Xrotation
                    End Site
                    {
                        OFFSET -0.000000 -0.166200 0.681375
                    }
                }
            }
        }
    }
}
MOTION
Frames: 5
Frame Time: 0.02
0.000000 9.517659 0.000000 16.093561 -88.316696 -22.677326 2.557204 -0.324229 9.313410 0.000000 0.000007 -12.161668 0.000001 0.000001 -0.005903 -0.000000 0.000002 5.829913 0.000003 0.000001 12.605158 -1.509624 -10.769058 -2.944591 -0.834226 1.443411 -2.858647 -4.889668 -8.665380 3.112465 12.084459 0.273976 -17.011528 0.706049 1.587728 1.597654 0.444366 -2.870086 -2.527113 7.002854 -2.455077 2.990558 0.548736 -5.270808 -6.641029 -5.912652 -12.478777 2.527015 3.586328 -18.645988 4.051720 -5.248322 -1.859922 10.867978 -2.506080 9.974350 -9.057430 -0.000002 0.000005 -0.000297 -2.912077 6.831957 5.902384 5.164438 -1.842347 10.433983 -1.118036 -11.373959 -9.132937 0.000009 0.000001 -0.000295
-0.001132 9.514445 0.014238 22.605209 -87.699814 -28.774727 1.898267 -0.705827 8.731530 -0.000004 0.000008 -12.161668 0.000002 -0.000007 -0.005906 0.000001 -0.000005 5.829918 -0.000001 0.000006 12.605160 -1.327404 -10.566334 -3.048034 -0.624256 1.609310 -2.673389 -4.631922 -9.105521 4.116696 11.713583 1.069939 -16.722046 -0.350026 -0.870877 1.645574 0.505431 -2.802692 -2.504189 7.036936 -1.942429 2.962112 -0.191600 -5.057666 -7.648067 -5.953481 -12.368582 2.473828 3.216421 -18.823774 4.053083 -5.211362 -1.893824 10.258754 -2.577753 9.601055 -9.472825 -0.000002 0.000001 -0.000286 -3.678047 5.447484 5.879128 5.173487 -1.480688 9.654926 -1.136312 -10.779008 -8.758755 0.000002 0.000004 -0.000295
-0.008477 9.516947 0.021317 24.366501 -87.269707 -30.657751 1.421035 -1.025304 8.779029 -0.000003 0.000009 -12.161667 0.000000 -0.000001 -0.005905 -0.000001 -0.000004 5.829916 0.000003 -0.000002 12.605159 -1.230071 -10.296229 -3.423235 -0.433548 1.740990 -2.516588 -4.382391 -8.816527 4.871877 11.142714 1.961583 -16.189751 -1.173156 -4.158548 1.866257 0.574679 -2.768888 -2.536924 6.961808 -1.603186 2.926071 -0.860456 -4.643834 -8.592978 -5.974625 -12.228321 2.437384 2.942403 -18.390667 4.648488 -5.222786 -1.851519 9.639304 -2.485770 8.782226 -9.732183 -0.000005 0.000001 -0.000296 -4.015660 5.047869 6.287605 5.096335 -1.908109 9.003014 -1.143849 -10.245671 -8.463846 0.000006 0.000006 -0.000295
-0.017918 9.519144 0.022506 23.827887 -87.183250 -30.362581 1.214254 -1.048335 9.006518 -0.000002 0.000008 -12.161664 0.000002 -0.000006 -0.005906 -0.000000 0.000003 5.829919 0.000003 -0.000002 12.605161 -1.174399 -10.059668 -3.894877 -0.250856 1.761417 -2.393692 -4.081774 -8.185458 5.399412 10.344070 2.598876 -15.447465 -1.615951 -7.568117 2.373894 0.637661 -2.801740 -2.567061 6.780483 -1.600568 2.792930 -1.382209 -4.119235 -9.396641 -5.945235 -12.040166 2.423878 2.959682 -17.211132 5.302079 -5.218194 -2.048457 9.213561 -2.347668 7.710041 -9.928380 0.000007 -0.000002 -0.000286 -3.985164 5.527596 6.689787 4.997903 -2.901436 8.499111 -1.148533 -9.778915 -8.240438 -0.000003 0.000005 -0.000295
-0.024004 9.519106 0.025043 20.678627 -87.218285 -27.222918 1.231331 -0.972724 9.002355 0.000001 0.000004 -12.161665 0.000001 0.000006 -0.005907 0.000001 0.000000 5.829917 0.000000 -0.000007 12.605159 -1.162395 -9.886736 -4.292547 -0.110265 1.696174 -2.282609 -3.741962 -7.618678 5.773975 9.301228 3.360900 -14.469169 -1.674318 -11.085000 3.148525 0.681570 -2.876346 -2.549260 6.488562 -1.841033 2.533628 -1.719407 -3.693321 -10.029840 -5.854901 -11.864553 2.421594 3.143735 -15.970335 5.556244 -5.122778 -2.331299 8.997186 -2.219843 6.731359 -9.970645 0.000003 0.000007 -0.000290 -3.797227 5.999363 6.772592 4.893404 -3.787334 8.162132 -1.140215 -9.387487 -8.069370 -0.000004 0.000005 -0.000292
